# xmcd CD database file
#
# Track frame offsets:
#	150
#	27878
#	57372
#	78789
#	96312
#	108753
#	126035
#	146170
#	171404
#	211796
#	229681
#	244741
#
# Disc length: 3708 seconds
#
# Revision: 0
# Processed by: cddbd v1.5.1PL2 Copyright (c) Steve Scherf et al.
# Submitted via: CDex 1.60beta1-cs1
#
DISCID=9b0e7a0c
DTITLE=Eric Aron - Jardins Celestes
DYEAR=2005
DGENRE=New Age
TTITLE0=Departure Of Gaia
TTITLE1=Garden Celeste
TTITLE2=Contact Of Light
TTITLE3=Garden Of L Intimite
TTITLE4=Garden Of The Movement
TTITLE5=Garden Of L Emotion
TTITLE6=Garden Of L Teaching
TTITLE7=Garden Of The Secrecies
TTITLE8=With The Borders Of Universe
TTITLE9=Garden D Love
TTITLE10=Garden Of The Angels
TTITLE11=Return Towards The Ground
EXTD=YEAR: 2005
EXTT0=
EXTT1=
EXTT2=
EXTT3=
EXTT4=
EXTT5=
EXTT6=
EXTT7=
EXTT8=
EXTT9=
EXTT10=
EXTT11=
PLAYORDER=
